<?xml version="1.0" encoding="utf-8"?>
<!-- Generator: Adobe Illustrator 23.0.1, SVG Export Plug-In . SVG Version: 6.00 Build 0)  -->
<svg version="1.1" id="Layer_1" xmlns="http://www.w3.org/2000/svg" xmlns:xlink="http://www.w3.org/1999/xlink" x="0px" y="0px"
	 viewBox="0 0 272 159" style="enable-background:new 0 0 272 159;" xml:space="preserve">
<style type="text/css">
	.st0{fill-opacity:0;}
	.st1{fill:#FFFFFF;filter:url(#Adobe_OpacityMaskFilter);}
	.st2{mask:url(#a_1_);}
	.st3{fill:#0092FF;}
	.st4{fill:#0B4CB2;}
	.st5{fill-rule:evenodd;clip-rule:evenodd;fill:#FC7754;}
	.st6{opacity:0.8;}
	.st7{fill-rule:evenodd;clip-rule:evenodd;fill:#FFFFFF;filter:url(#Adobe_OpacityMaskFilter_1_);}
	.st8{mask:url(#b_1_);fill:#FFFFFF;}
</style>
<path class="st0" d="M272,202H0L0,0l272,0V202z"/>
<defs>
	<filter id="Adobe_OpacityMaskFilter" filterUnits="userSpaceOnUse" x="-113" y="1.2" width="457" height="284.8">
		<feColorMatrix  type="matrix" values="1 0 0 0 0  0 1 0 0 0  0 0 1 0 0  0 0 0 1 0"/>
	</filter>
</defs>
<mask maskUnits="userSpaceOnUse" x="-113" y="1.2" width="457" height="284.8" id="a_1_">
	<path class="st1" d="M272,202H0L0,0l272,0V202z"/>
</mask>
<g class="st2">
	<path class="st3" d="M-113,286h457V8c0,0-294.6,93.6-457,52V286z"/>
	<path class="st4" d="M-113,286h457V8C259.3,77.7,49.4,166.6-113,125V286z"/>
	<path class="st0" d="M228,1.2l5.8,131.8l-191.9,8.4L36.1,9.5L228,1.2z"/>
	<path class="st5" d="M45.4,59c6.4,3.7,8.6,11.9,5,18.3l12.1,6.9c7.4-13.1,2.8-29.7-10.3-37.2L45.4,59L45.4,59z"/>
	<path class="st5" d="M163,26c12.2-0.1,22-9.9,22-22h-11.2c0,5.9-4.8,10.8-10.8,10.8V26z"/>
	<g class="st6">
		<defs>
			<filter id="Adobe_OpacityMaskFilter_1_" filterUnits="userSpaceOnUse" x="213.6" y="113.6" width="20.7" height="20.7">
				<feColorMatrix  type="matrix" values="1 0 0 0 0  0 1 0 0 0  0 0 1 0 0  0 0 0 1 0"/>
			</filter>
		</defs>
		<mask maskUnits="userSpaceOnUse" x="213.6" y="113.6" width="20.7" height="20.7" id="b_1_">
			<path class="st7" d="M215,115c0.1,10,8.1,18,18,18v-9.2c-4.9,0-8.8-3.9-8.9-8.8H215z"/>
		</mask>
		<path class="st8" d="M233,122.4h1.4v1.4H233C233,123.8,233,122.4,233,122.4z M224.1,113.6h1.3l0,1.3l-1.4,0V113.6z M234.4,133v1.4
			H233V133H234.4z M213.6,115l0-1.4h1.4v1.4L213.6,115z M233,125.2c-5.6,0-10.2-4.5-10.2-10.1l2.7,0c0.1,4.1,3.4,7.5,7.5,7.5V125.2z
			 M231.6,133v-9.2h2.7v9.2H231.6z M216.4,115c0.1,9.2,7.5,16.6,16.6,16.6v2.7c-10.7,0-19.3-8.7-19.4-19.4
			C213.6,115,216.4,115,216.4,115z M224.1,116.4H215v-2.7h9.1V116.4z"/>
	</g>
</g>
</svg>
